<?xml version="1.0" encoding="utf-8"?>
<!-- Generator: Adobe Illustrator 22.1.0, SVG Export Plug-In . SVG Version: 6.00 Build 0)  -->
<svg version="1.1" id="Layer_1" xmlns="http://www.w3.org/2000/svg" xmlns:xlink="http://www.w3.org/1999/xlink" x="0px" y="0px"
	 viewBox="0 0 1300 840.1" style="enable-background:new 0 0 1300 840.1;" xml:space="preserve">
<style type="text/css">
	.st0{font-family:'MyriadPro-Bold';}
	.st1{font-size:221.3601px;}
	.st2{fill:#707BBF;}
	.st3{fill:#F3C8B7;}
	.st4{fill:#F6F0E9;}
	.st5{fill:#5F72A1;}
	.st6{fill:#353B67;}
</style>
<text transform="matrix(1 0 0 1 58.1216 757.4814)"><tspan x="0" y="0" class="st0 st1">¡AQUÍ </tspan><tspan x="622" y="0" class="st2 st0 st1">ESTÁ!</tspan></text>
<g>
	<path class="st3" d="M1024.9,360.9l-137.9-5.5c0-0.2,0-0.4,0-0.6c0-0.1,0-0.2,0-0.3c0-0.1,0-0.3,0-0.5c0-0.1,0-0.2,0-0.3
		c0,0,0,0,0,0l0,0c0-0.1,0-0.2,0-0.3l0-1.4l0-0.2c0,0,0,0,0,0l0-0.1l0,0l0,0l0-0.1c0,0,0,0.1,0,0.1l0-0.3c0-0.1,0-0.2,0-0.3l0-0.4
		c0-0.2,0-0.5-0.1-0.8c0-0.1,0-0.1,0-0.2c0-0.1,0-0.1,0-0.2l0-0.1c0,0,0-0.1,0-0.1l0-0.1c-0.1-0.9-0.3-1.7-0.5-2.2
		c0-0.2-0.1-0.3-0.2-0.6c0-0.1-0.1-0.2-0.1-0.3c0-0.1,0-0.1-0.1-0.2l0,0l0,0c0,0,0,0,0-0.1l-0.1-0.3l0-0.1c-0.1-0.2-0.2-0.5-0.3-0.7
		c-0.1-0.2-0.2-0.4-0.2-0.6c-0.1-0.3-0.2-0.5-0.3-0.7l0-0.1c0,0,0-0.1-0.1-0.1c-0.1-0.1-0.1-0.3-0.2-0.4c-0.2-0.5-0.5-0.9-0.6-1.1
		c0,0,0,0,0-0.1c-0.1-0.1-0.1-0.2-0.2-0.3c-0.1-0.1-0.1-0.2-0.2-0.3l-0.2-0.4c0,0-0.1-0.1-0.1-0.1c-0.2-0.3-0.4-0.5-0.6-0.8
		c-0.3-0.3-0.6-0.7-0.9-1.1c0,0,0-0.1-0.1-0.1l0-0.1c-0.3-0.4-0.7-0.7-1-1c-0.3-0.2-0.6-0.5-0.9-0.8c-0.1-0.1-0.1-0.1-0.2-0.2
		c-0.1-0.1-0.2-0.2-0.4-0.3c0,0,0,0-0.1,0c-0.2-0.2-0.4-0.3-0.5-0.4c-1.2-1-2.5-2-4.1-2.9c-49.1-28.3-98.1-56.6-147.2-85
		c-8.7-5-21.3-6.5-32.3-4.4l-53.2-60.4l-0.9-1.1l-33.5-38.1c-3.2-3.7-8.6-4.5-12.8-2.1L296.2,315.7c-5.6,3.2-6.8,10.8-2.5,15.6
		L390,440.8c1,1.1,2.1,1.9,3.3,2.5c0.6,0.8,1.3,1.6,2.3,2.5c0.5,0.5,1.3,1.2,1.9,1.6c0.5,0.4,1.1,0.8,1.7,1.2c0.6,0.4,1.2,0.8,1.6,1
		c0,0,0,0,0,0l14.7,8.5l14.7,8.5l14.7,8.5l14.7,8.5l14.7,8.5l14.7,8.5l14.7,8.5l14.7,8.5l14.7,8.5l14.7,8.5c0.2,0.1,0.3,0.2,0.5,0.3
		c0.2,0.1,0.3,0.2,0.5,0.3c0,0,0,0,0.1,0c0.3,0.1,0.5,0.3,0.8,0.4c0.1,0.1,0.2,0.1,0.3,0.2l0.3,0.1c0.5,0.2,0.9,0.4,1.3,0.6l0.4,0.2
		c0.2,0.1,0.5,0.2,0.8,0.3c0.4,0.2,0.8,0.3,1.2,0.4c0.1,0,0.2,0.1,0.3,0.1l0.2,0.1c0.7,0.2,1.3,0.4,1.9,0.6l0.1,0
		c0.1,0,0.3,0.1,0.4,0.1c0.7,0.2,1.3,0.3,1.7,0.4c0.1,0,0.1,0,0.2,0c0,0,0.1,0,0.1,0c0.1,0,0.1,0,0.2,0c5.9,1.4,12.6,1.9,19.4,0.9
		l146.3,5.8c1,0,2.1-0.2,2.9-0.7l163.9-95.3l0.1,0l16-9.3l-0.1,0L964,408l0.2,0l16-9.3l-0.2,0l47.5-27.6
		C1032.1,368.3,1030.4,361.2,1024.9,360.9z"/>
	<g>
		<path class="st4" d="M829.7,310.9L530.4,484.8c-4.7,2.7-2.9,9.9,2.5,10.1l151.4,6c1,0,2.1-0.2,2.9-0.7l299.3-173.9
			c4.7-2.7,2.9-9.9-2.5-10.1l-151.4-6C831.6,310.1,830.6,310.3,829.7,310.9z"/>
		<path class="st4" d="M554,97.3L255.3,270.9c-5.6,3.2-6.8,10.8-2.5,15.6L349.1,396c3.2,3.7,8.6,4.5,12.8,2.1l298.7-173.6
			c5.6-3.2,6.8-10.8,2.5-15.6L566.8,99.4C563.6,95.7,558.2,94.9,554,97.3z"/>
		<g>
			<polygon class="st3" points="781.2,445.6 797.2,436.3 624.7,429.9 608.7,439.2 			"/>
			<polygon class="st3" points="851.3,404.9 867.3,395.6 694.9,389.3 678.9,398.6 			"/>
			<path class="st3" d="M344.4,220.9l98.1,113c1,1.1,2.4,1.7,3.7,1.7c1.1,0,2.3-0.4,3.2-1.2c2.1-1.8,2.3-4.9,0.5-7l-97.9-112.8
				l-8.5,4.9C343.8,220.1,344.1,220.5,344.4,220.9z"/>
			<path class="st3" d="M414.6,180.2l98.1,113c1,1.1,2.4,1.7,3.7,1.7c1.1,0,2.3-0.4,3.2-1.2c2.1-1.8,2.3-4.9,0.5-7L422.2,174
				l-8.5,4.9C414,179.4,414.2,179.8,414.6,180.2z"/>
			<polygon class="st3" points="923.3,363.2 939.3,353.9 766.8,347.5 750.8,356.8 			"/>
			<path class="st3" d="M486.5,138.5l98.1,113c1,1.1,2.4,1.7,3.7,1.7c1.1,0,2.3-0.4,3.2-1.2c2.1-1.8,2.3-4.9,0.5-7l-97.9-112.8
				l-8.5,4.9C485.9,137.6,486.2,138.1,486.5,138.5z"/>
			<polygon class="st3" points="283.1,321 601.3,138.6 594.7,131 276.4,313.4 			"/>
		</g>
		<g>
			<g>
				<path class="st5" d="M846.3,307.2C846.3,307.2,846.3,307.2,846.3,307.2L846.3,307.2l0-0.1l0,0l0,0l0-0.1c0,0,0,0.1,0,0.1l0-0.3
					c0-0.1,0-0.2,0-0.3l0-0.4c0-0.2,0-0.5-0.1-0.8c0-0.1,0-0.1,0-0.2c0-0.1,0-0.1,0-0.2l0-0.1c0,0,0-0.1,0-0.1l0-0.1
					c-0.1-0.9-0.3-1.7-0.5-2.2c0-0.2-0.1-0.3-0.2-0.6c0-0.1-0.1-0.2-0.1-0.3c0-0.1,0-0.1-0.1-0.2l0,0l0,0c0,0,0,0,0-0.1l-0.1-0.3
					l0-0.1c-0.1-0.2-0.2-0.5-0.3-0.7c-0.1-0.2-0.2-0.4-0.2-0.6c-0.1-0.3-0.2-0.5-0.3-0.7l0-0.1c0,0,0-0.1-0.1-0.1
					c-0.1-0.1-0.1-0.3-0.2-0.4c-0.2-0.5-0.5-0.9-0.6-1.1c0,0,0,0,0-0.1c-0.1-0.1-0.1-0.2-0.2-0.3c-0.1-0.1-0.1-0.2-0.2-0.3l-0.2-0.4
					c0,0-0.1-0.1-0.1-0.1c-0.2-0.3-0.4-0.5-0.6-0.8c-0.3-0.3-0.6-0.7-0.9-1.1c0,0,0-0.1-0.1-0.1l0-0.1c-0.3-0.4-0.7-0.7-1-1
					c-0.3-0.2-0.6-0.5-0.9-0.8c-0.1-0.1-0.1-0.1-0.2-0.2c-0.1-0.1-0.2-0.2-0.4-0.3c0,0,0,0-0.1,0c-0.3-0.3-0.6-0.5-0.9-0.7
					c0,0-0.1-0.1-0.1-0.1c-0.3-0.2-0.7-0.5-1-0.7c-0.1-0.1-0.2-0.2-0.4-0.3c0,0,0.1,0,0.1,0.1l-0.1-0.1c0,0,0,0,0,0c0,0,0,0-0.1,0
					l-0.4-0.2c-0.4-0.2-0.8-0.5-1.2-0.7c0.5,0.3,1,0.6,1.5,1c-0.5-0.3-1.1-0.7-1.5-1c0,0,0,0,0,0c0,0,0,0,0,0c0,0,0,0,0,0
					c0,0,0,0,0,0c0,0,0,0,0,0c-0.1,0-0.1-0.1-0.2-0.1c0,0,0,0,0.1,0c-0.1,0-0.1-0.1-0.2-0.1c0,0,0,0,0,0c0,0,0,0,0,0c0,0,0,0,0,0
					c0,0,0,0,0,0c0,0,0,0,0,0c0,0,0,0,0,0c0,0,0,0,0,0c0,0,0,0,0,0c0,0,0,0,0,0c0,0,0,0,0,0c0,0,0,0-0.1,0c0,0,0,0-0.1,0
					c0,0,0,0,0,0c0,0-0.1,0-0.1,0c0,0,0,0-0.1,0c0,0,0,0,0,0c0,0,0,0,0,0c0,0,0,0-0.1,0c0,0,0,0,0,0c0,0,0,0,0,0c0,0,0,0,0,0
					c0,0-0.1,0-0.1,0c0,0,0,0,0,0c0,0,0,0,0,0c0,0-0.1,0-0.1,0c0,0-0.1,0-0.1,0c0,0,0,0,0,0c-0.1,0-0.2,0.1-0.3,0.1
					c0.4,0.2,0.8,0.4,1.1,0.7c0.8,0.5,1.5,1,2.2,1.6c0.3,0.2,0.5,0.4,0.8,0.7c1.1,0.9,2,1.9,2.7,2.9c1.2,1.9,2.4,4.5,2.5,7.4
					c-0.1,3.1-1.5,6.1-4.3,8.9c0,0-0.1,0.1-0.1,0.1c-0.1,0.1-0.3,0.3-0.5,0.4c-1,0.9-2.2,1.8-3.6,2.7c-0.2,0.1-0.5,0.3-0.7,0.4
					L553.2,477.4c-0.6,0.3-1.2,0.7-1.8,1c-1.7,0.8-3.8,1.7-6.4,2.5c-5.2,1.5-11.1,2.1-16.8,1.9c-5-0.3-10.5-1.4-16.4-3.7
					c-1.1-0.5-2.1-1-3.1-1.6l-147.2-85c-8.8-5.1-11.4-12.4-7.6-18.8c0.1-0.1,0.1-0.2,0.2-0.3c0.1-0.1,0.1-0.2,0.2-0.3
					c1.1-1.7,2.6-3.2,4.3-4.5c0.8-0.6,1.8-1.3,2.8-1.9c0,0,0,0-0.1,0c0,0,0,0,0,0c0,0-0.1,0-0.1,0c0,0,0,0,0,0c0,0-0.1,0-0.1,0
					c0,0,0,0,0,0c0,0-0.1,0-0.1,0c0,0,0,0,0,0c0,0-0.1,0-0.1,0c0,0,0,0,0,0c0,0,0,0,0,0c0,0,0,0,0,0c0,0,0,0,0,0c0,0,0,0,0,0
					c0,0,0,0,0,0c0,0,0,0,0,0c0,0,0,0,0,0l0,0c0,0,0,0,0,0c0,0,0,0,0,0c0,0,0,0-0.1,0l0,0c0,0,0,0,0,0c0,0,0,0,0,0c0,0,0,0,0,0
					c0,0,0,0,0,0l0,0c0,0,0,0,0,0c0,0,0,0,0,0c0,0,0,0-0.1,0c0,0,0,0,0,0c0,0,0,0,0,0c0,0,0,0,0,0c0,0,0,0,0,0c0,0,0,0,0,0l0,0
					c0,0,0,0,0,0c0,0,0,0,0,0c0,0,0,0,0,0c0,0,0,0,0,0c0,0,0,0,0,0l0,0c0,0,0,0,0,0c0,0,0,0,0,0c0,0,0,0,0,0c0,0,0,0,0,0
					c0,0,0,0,0,0c0,0,0,0,0,0c0,0,0,0,0,0c0,0,0,0,0,0c0,0,0,0,0,0c0,0,0,0,0,0c0,0,0,0,0,0c0,0,0,0,0,0c0,0,0,0,0,0c0,0,0,0,0,0
					c0,0,0,0,0,0c0,0,0,0,0,0c0,0,0,0,0,0c0,0,0,0,0,0c0,0,0,0,0,0c-0.1,0-0.2,0.1-0.2,0.1c-0.2,0.1-0.4,0.3-0.7,0.4
					c-0.2,0.1-0.4,0.3-0.6,0.4c-0.1,0.1-0.3,0.2-0.4,0.3c0,0-0.1,0-0.1,0c-0.3,0.2-0.7,0.4-1,0.7c-0.2,0.2-0.5,0.4-0.8,0.6
					c-0.2,0.2-0.4,0.3-0.7,0.5l-1.3,1.2c-0.3,0.3-1.1,1.1-1.8,1.9c0,0,0,0,0,0l0,0c-0.4,0.5-0.8,1.1-1.2,1.6
					c-0.1,0.2-0.3,0.5-0.6,0.9c0,0.1-0.1,0.1-0.1,0.2l-0.1,0.1c-0.2,0.3-0.3,0.6-0.5,0.9l0,0.1c0,0,0,0,0,0.1
					c-0.3,0.7-0.7,1.4-0.9,2.3l0,0.1c0,0,0,0.1,0,0.1c0,0.1,0,0.1-0.1,0.2c0,0.1-0.1,0.3-0.1,0.4c0,0,0,0,0,0
					c-0.1,0.2-0.1,0.4-0.1,0.5c0,0,0,0.1,0,0.1l0,0.1c-0.1,0.6-0.2,1-0.2,1.1c0,0.1,0,0.2,0,0.3c0,0.3-0.1,0.5-0.1,0.8l0,0.2
					c0,0.3-0.1,0.5-0.1,0.7l0,0.1l0,0.3c0,0.3,0,0.7,0,1.1l0,1.4c0,0.7,0,1.4,0.1,2c0,0,0,0,0,0.1c0.1,0.7,0.2,1.4,0.3,1.9
					c0,0,0,0,0,0c0.1,0.4,0.2,0.7,0.2,1c0,0.1,0.1,0.2,0.1,0.3c0.1,0.4,0.2,0.8,0.4,1.2c0,0.1,0.1,0.3,0.2,0.4
					c0.3,0.9,0.7,1.7,1.1,2.4c0.2,0.3,0.3,0.5,0.4,0.7c0.1,0.2,0.3,0.4,0.4,0.7c0.2,0.3,0.3,0.5,0.5,0.8c0,0.1,0.1,0.1,0.1,0.2
					c0.7,1,1.5,1.9,2.8,3.1c0.5,0.5,1.3,1.2,1.9,1.6c0.5,0.4,1.1,0.8,1.7,1.2c0.6,0.4,1.2,0.8,1.6,1c-0.1-0.1-0.2-0.1-0.3-0.2
					c0.1,0.1,0.2,0.2,0.3,0.2l14.7,8.5l14.7,8.5l14.7,8.5l14.7,8.5l14.7,8.5l14.7,8.5l14.7,8.5l14.7,8.5l14.7,8.5l14.7,8.5h0
					c0.2,0.1,0.3,0.2,0.5,0.3c0.2,0.1,0.3,0.2,0.5,0.3c0,0,0,0,0.1,0c0.3,0.1,0.5,0.3,0.8,0.4c0.1,0.1,0.2,0.1,0.3,0.2l0.3,0.1
					c0.5,0.2,0.9,0.4,1.3,0.6l0.4,0.2c0.2,0.1,0.5,0.2,0.8,0.3c0.4,0.2,0.8,0.3,1.2,0.4c0.1,0,0.2,0.1,0.3,0.1l0.2,0.1
					c0.7,0.2,1.3,0.4,1.9,0.6l0.1,0c0.1,0,0.3,0.1,0.4,0.1c0.7,0.2,1.3,0.3,1.7,0.4c0.1,0,0.1,0,0.2,0c0,0,0.1,0,0.1,0
					c0.1,0,0.1,0,0.2,0c6.7,1.6,14.3,2,22,0.5c1.1-0.2,2.1-0.4,2.7-0.6c0.8-0.2,1.8-0.4,2.5-0.7c0,0,0.1,0,0.1,0
					c0.7-0.2,1.5-0.5,2.2-0.7l2.2-0.8c0.3-0.1,0.6-0.3,0.9-0.4c0.3-0.2,0.6-0.3,1-0.5c0.1-0.1,0.3-0.1,0.4-0.2
					c0.6-0.3,1.4-0.7,1.9-1l0,0l28-16.3l28-16.3l28-16.3l28-16.3l28-16.3l28-16.3l28-16.3l28-16.3l28-16.3l28-16.3l0,0l0,0
					c0.8-0.5,1.5-0.9,2.1-1.3c0,0,0.1,0,0.1-0.1l0,0c0.5-0.4,1-0.7,1.5-1.1l0,0c0.5-0.4,0.8-0.6,1.2-1c0,0,0.1-0.1,0.1-0.1
					c0.3-0.3,0.7-0.6,1.1-1c0,0,0.1-0.1,0.1-0.1l0.1-0.1c0.3-0.3,0.6-0.7,0.9-1l0.1-0.1c0,0,0,0,0,0c0.4-0.5,0.9-1.1,1.2-1.6
					c0.1-0.2,0.3-0.5,0.5-0.9l0.2-0.3c0.1-0.2,0.2-0.3,0.3-0.5c0,0,0,0,0,0c0-0.1,0.1-0.2,0.1-0.2c0,0,0,0.1-0.1,0.1
					c0.1-0.2,0.2-0.4,0.3-0.6c0,0,0-0.1,0.1-0.1l0-0.1c0.1-0.3,0.3-0.6,0.4-0.9l0-0.1l0.1-0.1c0.1-0.4,0.3-0.8,0.4-1.2
					c0-0.1,0-0.1,0-0.2l0-0.1c0,0,0,0,0,0.1c0.1-0.3,0.2-0.6,0.2-0.8l0-0.1c0,0,0,0,0-0.1c0.2-0.7,0.2-1.1,0.3-1.2
					c0-0.2,0.1-0.4,0.1-0.5l0.1-0.4c0,0.1,0,0.2-0.1,0.3c0,0,0-0.1,0-0.1l0.1-0.4c0,0,0-0.1,0-0.1c0-0.3,0.1-0.6,0.1-0.9
					c0-0.1,0-0.2,0-0.3c0-0.1,0-0.3,0-0.5c0-0.1,0-0.2,0-0.3v0l0,0c0-0.1,0-0.2,0-0.3l0-1.4L846.3,307.2z M556,486.5L556,486.5
					c0,0,0-0.1,0-0.1v0C556,486.5,556,486.5,556,486.5z M556,486.3L556,486.3C556,486.3,556,486.3,556,486.3L556,486.3
					C556,486.3,556,486.3,556,486.3z M556,485.9L556,485.9C556,485.9,556,485.9,556,485.9C556,485.9,556,485.9,556,485.9z
					 M358.7,401.6c0,0.6,0.1,1.1,0.3,1.5C358.8,402.7,358.7,402.2,358.7,401.6z M505.8,485.9c0,1.7,0.4,3,1,3.6
					C506.2,488.8,505.8,487.5,505.8,485.9z M506.9,489.5c0,0,0.1,0.1,0.1,0.1C507,489.6,506.9,489.6,506.9,489.5z"/>
				<g>
					<path class="st6" d="M834,288.4c12.3,7.1,12.4,18.7,0.1,25.8c-93.3,54.2-189.4,109.9-282.7,164.2c-12.2,7.1-31.2,5.6-43.5-1.5
						c-49.1-28.3-98.1-56.6-147.2-85c-12.3-7.1-12.4-18.7-0.2-25.8c93.3-54.2,188.4-108.4,281.7-162.7c12.2-7.1,32.2-7.1,44.5,0
						C735.8,231.7,784.9,260,834,288.4z"/>
				</g>
				<path class="st4" d="M804.6,286.9l-116.8-67.4c-13.9-8-36.4-8-50.2,0L424.9,343.1c-13.8,8-13.8,21.1,0.2,29.1l116.8,67.4
					c13.9,8,36.4,8,50.2,0L804.7,316C818.6,308,818.5,295,804.6,286.9z"/>
			</g>
			<path class="st2" d="M477.8,427.1l-32.6-18.8c-1.9-1.1-5.1-1.1-7,0c-1.9,1.1-1.9,2.9,0,4l32.6,18.8c1.9,1.1,5.1,1.1,7,0
				C479.7,430.1,479.7,428.3,477.8,427.1z"/>
		</g>
		<g>
			<path class="st3" d="M618.2,424.4c-0.4-0.7-1-1.4-1.8-1.8l-165.2-94.8l-9.2,5.3c0.4,0.7,1,1.4,1.8,1.8L609,429.8L618.2,424.4z"/>
			<path class="st3" d="M688.3,383.7c-0.4-0.7-1-1.4-1.8-1.8l-165.2-94.8l-9.2,5.3c0.4,0.7,1,1.4,1.8,1.8l165.2,94.8L688.3,383.7z"
				/>
			<path class="st3" d="M760.3,342c-0.4-0.7-1-1.4-1.8-1.8l-165.2-94.8l-9.2,5.3c0.4,0.7,1,1.4,1.8,1.8l165.2,94.8L760.3,342z"/>
			<polygon class="st3" points="521.5,427.8 786,276.2 776.1,270.5 511.6,422.1 			"/>
		</g>
		<g>
			<path class="st6" d="M788.4,171.5c0-0.2,0-0.5,0-0.7c0-0.4,0-0.8,0-1.3c0-0.2,0-0.5,0-0.7c0-0.3,0-0.6,0-0.9c0-0.4,0-0.8,0-1.2
				c0-0.2,0-0.4,0-0.6c0-0.4,0-0.7-0.1-1.1c0-0.4,0-0.7-0.1-1.1c0-0.1,0-0.3,0-0.4c0-0.5-0.1-1.1-0.1-1.6c0-0.3,0-0.5-0.1-0.8
				c0-0.1,0-0.1,0-0.2c-0.1-0.9-0.2-1.7-0.3-2.6c0,0,0-0.1,0-0.1c0-0.2-0.1-0.4-0.1-0.5c-0.1-0.7-0.2-1.3-0.3-2c0-0.1,0-0.2-0.1-0.4
				c-0.1-0.3-0.1-0.7-0.2-1c-0.1-0.4-0.1-0.8-0.2-1.3c0-0.2-0.1-0.4-0.1-0.7c-0.1-0.4-0.2-0.7-0.2-1.1c-0.1-0.3-0.1-0.6-0.2-0.9
				c-0.1-0.3-0.2-0.7-0.2-1c-0.1-0.4-0.2-0.8-0.3-1.1c0-0.2-0.1-0.4-0.1-0.6c-0.1-0.5-0.3-1-0.4-1.4c-0.1-0.3-0.2-0.7-0.3-1
				c0-0.1-0.1-0.2-0.1-0.3c-0.2-0.9-0.5-1.8-0.8-2.6c0,0,0-0.1,0-0.1c0,0,0,0,0,0c-0.3-0.9-0.6-1.8-0.9-2.7c0-0.1-0.1-0.2-0.1-0.3
				c-0.1-0.3-0.2-0.6-0.3-0.9c-0.2-0.5-0.3-1-0.5-1.4c-0.1-0.3-0.2-0.5-0.3-0.8c-0.1-0.3-0.3-0.7-0.4-1c-0.1-0.3-0.2-0.6-0.3-0.9
				c-0.2-0.5-0.4-0.9-0.6-1.4c-0.1-0.3-0.2-0.6-0.4-0.9c-0.1-0.1-0.1-0.2-0.1-0.4c-0.4-0.9-0.7-1.8-1.1-2.7c0,0,0-0.1,0-0.1
				c-0.1-0.2-0.1-0.3-0.2-0.5c-0.3-0.7-0.7-1.5-1-2.2c-0.1-0.3-0.3-0.6-0.4-0.9c-0.3-0.7-0.7-1.4-1.1-2.2c-0.2-0.5-0.5-0.9-0.7-1.4
				c-0.2-0.4-0.5-0.9-0.7-1.3c-0.1-0.2-0.2-0.5-0.4-0.7c-0.2-0.4-0.5-0.8-0.7-1.3c-0.5-0.9-1-1.8-1.5-2.8c-0.1-0.3-0.3-0.5-0.4-0.8
				c-0.2-0.4-0.5-0.8-0.8-1.2c-0.4-0.7-0.8-1.4-1.2-2.1c-0.4-0.7-0.9-1.4-1.3-2.1c-0.4-0.7-0.9-1.3-1.3-2c-0.2-0.3-0.3-0.5-0.5-0.8
				c-0.2-0.3-0.4-0.6-0.6-0.9c-0.8-1.1-1.5-2.2-2.3-3.3c-0.2-0.3-0.4-0.6-0.7-0.9c-0.2-0.2-0.3-0.4-0.5-0.7
				c-0.4-0.5-0.7-0.9-1.1-1.4c-0.3-0.4-0.6-0.8-0.9-1.2c-0.3-0.3-0.5-0.7-0.8-1c-0.3-0.4-0.6-0.8-0.9-1.1c-0.2-0.3-0.4-0.5-0.6-0.8
				c-0.5-0.6-1-1.2-1.5-1.8c-0.2-0.2-0.4-0.5-0.6-0.7c-0.1-0.1-0.1-0.1-0.2-0.2c-0.8-0.9-1.6-1.8-2.4-2.6c-0.1-0.1-0.2-0.2-0.2-0.2
				c-0.2-0.3-0.5-0.5-0.7-0.8c-0.5-0.5-1-1.1-1.5-1.6c-0.2-0.2-0.4-0.4-0.7-0.6c-0.3-0.3-0.7-0.7-1-1c-0.3-0.3-0.6-0.6-0.9-0.9
				c-0.4-0.4-0.7-0.7-1.1-1c-0.4-0.3-0.7-0.7-1.1-1c-0.2-0.2-0.3-0.3-0.5-0.5c-0.6-0.5-1.2-1.1-1.8-1.6c-0.2-0.2-0.5-0.4-0.7-0.6
				c-0.1,0-0.1-0.1-0.2-0.1c-0.9-0.8-1.8-1.5-2.7-2.2c-0.1-0.1-0.1-0.1-0.2-0.2c-0.2-0.2-0.5-0.4-0.7-0.5c-0.6-0.4-1.1-0.9-1.7-1.3
				c-0.2-0.2-0.5-0.3-0.7-0.5c-0.3-0.2-0.6-0.5-1-0.7c-0.3-0.2-0.6-0.4-0.9-0.6c-0.5-0.3-1-0.7-1.5-1c-0.2-0.2-0.5-0.3-0.7-0.5
				c-0.1-0.1-0.2-0.1-0.3-0.2c-0.8-0.5-1.6-1-2.5-1.5c-0.2-0.1-0.4-0.2-0.6-0.3c-0.6-0.3-1.2-0.7-1.8-1c-0.3-0.1-0.5-0.3-0.8-0.4
				c-0.3-0.2-0.6-0.3-0.9-0.5c-0.2-0.1-0.5-0.2-0.7-0.4c-0.5-0.2-0.9-0.4-1.3-0.6c-0.2-0.1-0.5-0.2-0.7-0.3c-0.1,0-0.2-0.1-0.3-0.1
				c-0.8-0.4-1.6-0.7-2.4-1c0,0-0.1,0-0.1,0c-0.2-0.1-0.3-0.1-0.5-0.2c-0.6-0.2-1.2-0.5-1.8-0.7c-0.1-0.1-0.3-0.1-0.4-0.1
				c-0.3-0.1-0.6-0.2-0.9-0.3c-0.3-0.1-0.7-0.2-1-0.3c-0.2-0.1-0.5-0.1-0.7-0.2c-0.4-0.1-0.7-0.2-1.1-0.3c-0.2-0.1-0.5-0.1-0.7-0.2
				c-0.3-0.1-0.6-0.1-1-0.2c-0.4-0.1-0.7-0.2-1.1-0.2c-0.2,0-0.3-0.1-0.5-0.1c-0.4-0.1-0.7-0.1-1.1-0.2c-0.4-0.1-0.8-0.1-1.1-0.2
				c-0.1,0-0.2,0-0.3-0.1c-0.4,0-0.7-0.1-1.1-0.1c-0.5-0.1-0.9-0.1-1.4-0.1c-0.1,0-0.2,0-0.3,0c-0.3,0-0.6,0-0.9,0
				c-0.6,0-1.1-0.1-1.6-0.1c-0.1,0-0.3,0-0.4,0c-0.6,0-1.2,0-1.7,0c-0.1,0-0.2,0-0.3,0c-0.4,0-0.8,0-1.2,0.1c-0.3,0-0.6,0.1-0.9,0.1
				c-0.2,0-0.4,0-0.6,0.1c-0.7,0.1-1.4,0.2-2.1,0.3c0,0-0.1,0-0.1,0c-0.3,0.1-0.5,0.1-0.8,0.2c-0.5,0.1-1.1,0.2-1.6,0.4
				c-0.3,0.1-0.6,0.2-0.9,0.3c-0.3,0.1-0.7,0.2-1,0.3c-0.1,0-0.2,0.1-0.3,0.1c-0.6,0.2-1.1,0.4-1.6,0.7c-0.3,0.1-0.5,0.2-0.8,0.3
				c-0.8,0.4-1.6,0.8-2.3,1.2l-23.9,13.9c0.8-0.4,1.5-0.8,2.3-1.2c0.3-0.1,0.5-0.2,0.8-0.3c0.5-0.2,1.1-0.5,1.6-0.7
				c0.4-0.2,0.9-0.3,1.3-0.4c0.3-0.1,0.6-0.2,0.9-0.3c0.5-0.1,1-0.3,1.6-0.4c0.3-0.1,0.5-0.1,0.8-0.2c0.7-0.1,1.5-0.3,2.2-0.4
				c0.2,0,0.4,0,0.6-0.1c0.7-0.1,1.3-0.1,2-0.2c0.1,0,0.2,0,0.3,0c0.7,0,1.4,0,2.1,0c0.5,0,1.1,0,1.6,0.1c0.4,0,0.8,0,1.2,0.1
				c0.5,0,0.9,0.1,1.4,0.1c0.5,0.1,0.9,0.1,1.4,0.2c0.4,0.1,0.8,0.1,1.1,0.2c0.5,0.1,1.1,0.2,1.6,0.3c0.4,0.1,0.7,0.2,1.1,0.2
				c0.5,0.1,1.1,0.3,1.7,0.4c0.4,0.1,0.7,0.2,1.1,0.3c0.6,0.2,1.2,0.3,1.8,0.5c0.3,0.1,0.6,0.2,0.9,0.3c0.7,0.3,1.5,0.5,2.2,0.8
				c0.2,0.1,0.3,0.1,0.5,0.2c0.9,0.4,1.8,0.7,2.7,1.2c0.2,0.1,0.5,0.2,0.7,0.3c0.7,0.3,1.3,0.6,2,1c0.3,0.2,0.6,0.3,0.9,0.5
				c0.9,0.4,1.7,0.9,2.6,1.4c1.1,0.6,2.2,1.3,3.3,2c0.2,0.1,0.5,0.3,0.7,0.5c0.8,0.5,1.6,1.1,2.4,1.7c0.3,0.2,0.6,0.5,1,0.7
				c0.8,0.6,1.6,1.2,2.4,1.8c0.2,0.2,0.5,0.4,0.7,0.6c1,0.8,2.1,1.7,3.1,2.5c0.2,0.2,0.5,0.4,0.7,0.6c0.8,0.7,1.6,1.4,2.3,2.1
				c0.4,0.3,0.7,0.7,1.1,1c0.7,0.6,1.4,1.3,2,1.9c0.3,0.3,0.7,0.7,1,1c0.7,0.7,1.5,1.5,2.2,2.2c0.2,0.3,0.5,0.5,0.7,0.8
				c0.9,1,1.9,2.1,2.8,3.1c0.2,0.2,0.4,0.5,0.6,0.7c0.7,0.8,1.4,1.7,2.1,2.5c0.3,0.4,0.6,0.8,0.9,1.1c0.6,0.7,1.2,1.5,1.8,2.2
				c0.4,0.5,0.7,0.9,1.1,1.4c0.4,0.5,0.8,1.1,1.2,1.6c0.8,1.1,1.6,2.2,2.3,3.3c0.4,0.6,0.8,1.1,1.1,1.7c0.4,0.7,0.9,1.3,1.3,2
				c0.4,0.7,0.9,1.4,1.3,2.1c0.4,0.7,0.8,1.4,1.2,2.1c0.4,0.7,0.8,1.4,1.2,2c0.5,0.9,1,1.8,1.5,2.7c0.4,0.7,0.7,1.3,1.1,2
				c0.2,0.4,0.5,0.9,0.7,1.3c0.6,1.2,1.2,2.4,1.8,3.6c0.5,1,1,2.1,1.4,3.1c0.1,0.1,0.1,0.3,0.2,0.5c0.5,1,0.9,2.1,1.3,3.1
				c0.1,0.3,0.2,0.6,0.4,0.9c0.3,0.8,0.6,1.5,0.9,2.3c0.1,0.3,0.3,0.7,0.4,1c0.3,0.7,0.5,1.5,0.8,2.2c0.1,0.3,0.2,0.6,0.3,0.9
				c0.3,1,0.7,2.1,1,3.1c0,0,0,0.1,0,0.1c0.3,1,0.6,2,0.9,3c0.1,0.3,0.2,0.7,0.3,1c0.2,0.7,0.4,1.4,0.5,2c0.1,0.4,0.2,0.8,0.3,1.1
				c0.1,0.6,0.3,1.3,0.4,1.9c0.1,0.4,0.2,0.7,0.2,1.1c0.1,0.7,0.2,1.3,0.4,1.9c0.1,0.3,0.1,0.7,0.2,1c0.1,0.8,0.2,1.6,0.3,2.4
				c0,0.2,0.1,0.4,0.1,0.5c0.1,1,0.2,1.9,0.3,2.8c0,0.3,0,0.5,0.1,0.8c0.1,0.7,0.1,1.3,0.1,2c0,0.4,0,0.7,0.1,1.1
				c0,0.6,0,1.1,0.1,1.7c0,0.4,0,0.8,0,1.2c0,0.5,0,1.1,0,1.6c0,0.4,0,0.8,0,1.3c0,0.5,0,1-0.1,1.5c0,0.4-0.1,0.9-0.1,1.3
				c-0.1,0.7-0.1,1.5-0.2,2.2c-0.1,1.2-0.3,2.4-0.5,3.6c0,0.2-0.1,0.4-0.1,0.6c-0.2,1.2-0.5,2.5-0.7,3.7c-0.1,0.5-0.2,0.9-0.3,1.3
				c-0.2,0.8-0.4,1.7-0.7,2.5c0,0.2-0.1,0.3-0.2,0.5c-0.4,1.2-0.7,2.3-1.2,3.4c-0.5,1.4-1.1,2.7-1.6,4c-0.2,0.4-0.4,0.8-0.5,1.2
				c-0.4,0.9-0.8,1.8-1.3,2.7c-0.2,0.4-0.4,0.9-0.7,1.3c-0.5,0.9-1,1.8-1.4,2.7c-0.2,0.3-0.4,0.7-0.5,1c-0.7,1.2-1.4,2.4-2.1,3.6
				c-0.1,0.2-0.3,0.4-0.4,0.7c-0.6,1-1.2,2-1.8,3c-0.3,0.4-0.5,0.9-0.8,1.3c-0.5,0.8-1,1.6-1.5,2.4c-0.4,0.7-0.8,1.3-1.2,2
				c-0.5,0.8-1,1.6-1.5,2.4c-0.8,1.2-1.5,2.4-2.2,3.6c-1.7,2.7-3.4,5.4-5.1,8.1c-0.1,0.1-0.1,0.2-0.2,0.3c-2.2,3.5-4.5,6.9-6.7,10.4
				c-0.6,0.9-1.2,1.8-1.7,2.7c-2.2,3.4-4.5,6.8-6.7,10.2c-3.6,5.3-7.2,10.7-10.8,15.9c-0.4,0.6-0.8,1-1.3,1.4
				c-0.2,0.1-0.3,0.2-0.5,0.3l0,0c0,0,0,0,0,0l23.9-13.9c0.6-0.4,1.2-0.9,1.7-1.7c3.6-5.3,7.2-10.6,10.8-15.9
				c2.3-3.4,4.5-6.8,6.7-10.1c0.6-0.9,1.2-1.8,1.8-2.7c2.2-3.4,4.5-6.9,6.7-10.4c0.1-0.1,0.1-0.2,0.2-0.3c0,0,0,0,0-0.1
				c1.7-2.7,3.4-5.4,5-8.1c0.7-1.2,1.5-2.4,2.3-3.6c0.5-0.8,1-1.6,1.5-2.4c0.4-0.7,0.8-1.3,1.2-2c0.5-0.8,1-1.6,1.5-2.4
				c0.3-0.4,0.5-0.9,0.8-1.3c0.6-1,1.2-2,1.8-3c0.1-0.2,0.3-0.4,0.4-0.7c0.7-1.2,1.4-2.4,2.1-3.6c0.2-0.3,0.4-0.7,0.5-1
				c0.5-0.9,1-1.8,1.4-2.7c0.2-0.4,0.4-0.9,0.7-1.3c0.2-0.4,0.4-0.8,0.6-1.3c0.2-0.5,0.4-1,0.6-1.4c0.2-0.4,0.4-0.8,0.5-1.2
				c0.6-1.3,1.1-2.6,1.6-4c0.1-0.2,0.1-0.3,0.2-0.5c0.4-1,0.7-1.9,1-2.9c0.1-0.2,0.1-0.3,0.2-0.5c0.1-0.2,0.1-0.3,0.2-0.5
				c0.2-0.7,0.3-1.3,0.5-2c0.1-0.4,0.2-0.9,0.3-1.3c0-0.1,0-0.1,0.1-0.2c0.2-1.1,0.5-2.2,0.7-3.3c0-0.1,0-0.1,0-0.2
				c0-0.2,0.1-0.4,0.1-0.6c0.1-0.8,0.2-1.5,0.3-2.3c0.1-0.4,0.1-0.8,0.1-1.3c0.1-0.5,0.1-1,0.1-1.6c0-0.2,0-0.4,0-0.6
				c0-0.4,0.1-0.9,0.1-1.3C788.3,172,788.4,171.7,788.4,171.5z"/>
			<g>
				<path class="st2" d="M705.8,84.2c18.6,10.8,36.5,31.3,47.8,54.9c8.9,18.7,12,35.8,10.5,50.6c-0.6,5.5-1.8,10.8-3.7,15.6
					c-4.5,12-11.5,21.8-17.7,31.9c-6.6,10.8-13.5,21.2-20.4,31.6c-3.6,5.3-7.2,10.7-10.8,15.9c-1.6,2.3-3.8,2.8-5.9,1.5
					c-2.1-1.2-4.2-4.1-5.9-8.2c-7.2-18.7-14.3-37.5-21.2-56.2c-4.6-12.4-9-24.6-13.3-37c-4.2-12.4-9.2-24.8-13.1-37.1
					c-6.3-20-8.4-38.4-2.5-52C658.8,74.8,681.4,70.2,705.8,84.2z"/>
			</g>
			
				<ellipse transform="matrix(0.8646 -0.5025 0.5025 0.8646 20.5375 375.1512)" class="st4" cx="706.4" cy="149.5" rx="26.5" ry="45.8"/>
		</g>
	</g>
</g>
</svg>
